# xmcd CD database file
#
# Track frame offsets:
#	150
#	16362
#	36774
#	50830
#	65940
#	81923
#	106761
#	123638
#	141716
#	157978
#
# Disc length: 2244 seconds
#
# Revision: 2
# Processed by: cddbd v1.5.2PL0 Copyright (c) Steve Scherf et al.
# Submitted via: CDex 1.51
#
DISCID=9208c20a
DTITLE=Philip Gibbs - Paper Crosses
DYEAR=2003
DGENRE=Country
TTITLE0=Paper Crosses
TTITLE1=Dead Ender
TTITLE2=Out Of My Hands
TTITLE3=Pushing Me Away
TTITLE4=You Don't Know
TTITLE5=Another Place To Disappear
TTITLE6=You're Gonna Get What's Coming To You
TTITLE7=Box Bought On Sale
TTITLE8=Jose Limon
TTITLE9=Let It Die
EXTD=YEAR: 2003
EXTT0=
EXTT1=
EXTT2=
EXTT3=
EXTT4=
EXTT5=
EXTT6=
EXTT7=
EXTT8=
EXTT9=
PLAYORDER=
